<svg xmlns="http://www.w3.org/2000/svg" xmlns:xlink="http://www.w3.org/1999/xlink" width="1080" zoomAndPan="magnify" viewBox="0 0 810 1799.999925" height="2400" preserveAspectRatio="xMidYMid meet" version="1.0"><defs><filter x="0%" y="0%" width="100%" height="100%" id="54efa86645"><feColorMatrix values="0 0 0 0 1 0 0 0 0 1 0 0 0 0 1 0 0 0 1 0" color-interpolation-filters="sRGB"/></filter><clipPath id="9ce23bc3e4"><path d="M 0 0 L 179 0 L 179 114.738281 L 0 114.738281 Z M 0 0 " clip-rule="nonzero"/></clipPath><clipPath id="600a345b81"><path d="M -13.773438 -177.621094 C -8.886719 -177.621094 -3.972656 -177.621094 0.90625 -177.621094 C 39.789062 -172.738281 64.085938 -156.484375 75.15625 -129.886719 C 139.976562 -133.433594 187.105469 -83.140625 158.386719 -33.785156 C 167.9375 -23.410156 175.902344 -11.808594 178.78125 3.761719 C 178.78125 8.222656 178.78125 12.671875 178.78125 17.132812 C 170.207031 56.765625 133.304688 83.542969 72.71875 76.335938 C 57.132812 96.683594 29.398438 117.0625 -13.765625 114.523438 C -36.074219 113.1875 -51.59375 105.449219 -65.183594 96.050781 C -79.492188 103.863281 -94.996094 109.996094 -117.390625 110.0625 C -169.203125 110.179688 -203.867188 80.074219 -204.707031 38.78125 C -238.015625 29.117188 -260.574219 11.085938 -266.71875 -19.769531 C -266.71875 -24.230469 -266.71875 -28.699219 -266.71875 -33.140625 C -259.9375 -63.714844 -238.605469 -82.921875 -203.082031 -91.0625 C -205.21875 -142.640625 -134.167969 -174.871094 -75.796875 -152.148438 C -61.898438 -163.386719 -42.234375 -175.640625 -13.773438 -177.621094 Z M -13.773438 -177.621094 " clip-rule="nonzero"/></clipPath><clipPath id="7a1ec7f857"><path d="M 696.375 1653.820312 L 810 1653.820312 L 810 1800 L 696.375 1800 Z M 696.375 1653.820312 " clip-rule="nonzero"/></clipPath><clipPath id="17680d76a5"><path d="M 949.320312 1653.820312 C 954.203125 1653.820312 959.121094 1653.820312 963.996094 1653.820312 C 1002.878906 1658.703125 1027.179688 1674.957031 1038.246094 1701.554688 C 1103.070312 1698.007812 1150.199219 1748.300781 1121.476562 1797.65625 C 1131.027344 1808.03125 1138.996094 1819.632812 1141.875 1835.203125 C 1141.875 1839.664062 1141.875 1844.113281 1141.875 1848.574219 C 1133.296875 1888.203125 1096.394531 1914.984375 1035.8125 1907.773438 C 1020.226562 1928.125 992.488281 1948.503906 949.328125 1945.964844 C 927.019531 1944.628906 911.5 1936.890625 897.910156 1927.488281 C 883.597656 1935.304688 868.097656 1941.4375 845.699219 1941.503906 C 793.886719 1941.621094 759.226562 1911.515625 758.386719 1870.21875 C 725.074219 1860.558594 702.515625 1842.527344 696.375 1811.671875 C 696.375 1807.210938 696.375 1802.742188 696.375 1798.300781 C 703.152344 1767.726562 724.488281 1748.519531 760.007812 1740.378906 C 757.875 1688.800781 828.925781 1656.570312 887.296875 1679.292969 C 901.195312 1668.054688 920.855469 1655.800781 949.320312 1653.820312 Z M 949.320312 1653.820312 " clip-rule="nonzero"/></clipPath><mask id="2a644631c3"><g filter="url(#54efa86645)"><rect x="-81" width="972" fill="#000000" y="-179.999992" height="2159.99991" fill-opacity="0.45"/></g></mask><clipPath id="a7ee295dcc"><path d="M 0.261719 1.078125 L 60.097656 1.078125 L 60.097656 60.914062 L 0.261719 60.914062 Z M 0.261719 1.078125 " clip-rule="nonzero"/></clipPath><clipPath id="2da89072e6"><path d="M 30.179688 1.078125 C 13.65625 1.078125 0.261719 14.472656 0.261719 30.996094 C 0.261719 47.515625 13.65625 60.914062 30.179688 60.914062 C 46.703125 60.914062 60.097656 47.515625 60.097656 30.996094 C 60.097656 14.472656 46.703125 1.078125 30.179688 1.078125 Z M 30.179688 1.078125 " clip-rule="nonzero"/></clipPath><clipPath id="99aeddfd10"><rect x="0" width="61" y="0" height="61"/></clipPath><mask id="085d52ffcf"><g filter="url(#54efa86645)"><rect x="-81" width="972" fill="#000000" y="-179.999992" height="2159.99991" fill-opacity="0.45"/></g></mask><clipPath id="f96a268ebb"><path d="M 0.761719 0.65625 L 60.597656 0.65625 L 60.597656 60.488281 L 0.761719 60.488281 Z M 0.761719 0.65625 " clip-rule="nonzero"/></clipPath><clipPath id="19197b872c"><path d="M 30.679688 0.65625 C 14.15625 0.65625 0.761719 14.050781 0.761719 30.570312 C 0.761719 47.09375 14.15625 60.488281 30.679688 60.488281 C 47.203125 60.488281 60.597656 47.09375 60.597656 30.570312 C 60.597656 14.050781 47.203125 0.65625 30.679688 0.65625 Z M 30.679688 0.65625 " clip-rule="nonzero"/></clipPath><clipPath id="a5e5b1dfe6"><rect x="0" width="61" y="0" height="61"/></clipPath><mask id="968fcf46a7"><g filter="url(#54efa86645)"><rect x="-81" width="972" fill="#000000" y="-179.999992" height="2159.99991" fill-opacity="0.45"/></g></mask><clipPath id="989a503843"><path d="M 1.082031 0.210938 L 60.917969 0.210938 L 60.917969 60.046875 L 1.082031 60.046875 Z M 1.082031 0.210938 " clip-rule="nonzero"/></clipPath><clipPath id="2413ec974d"><path d="M 31 0.210938 C 14.476562 0.210938 1.082031 13.605469 1.082031 30.128906 C 1.082031 46.652344 14.476562 60.046875 31 60.046875 C 47.523438 60.046875 60.917969 46.652344 60.917969 30.128906 C 60.917969 13.605469 47.523438 0.210938 31 0.210938 Z M 31 0.210938 " clip-rule="nonzero"/></clipPath><clipPath id="9ff88b355a"><rect x="0" width="62" y="0" height="61"/></clipPath><mask id="72ade1ae8a"><g filter="url(#54efa86645)"><rect x="-81" width="972" fill="#000000" y="-179.999992" height="2159.99991" fill-opacity="0.45"/></g></mask><clipPath id="a48a9801a6"><path d="M 0.164062 0.0078125 L 60 0.0078125 L 60 59.84375 L 0.164062 59.84375 Z M 0.164062 0.0078125 " clip-rule="nonzero"/></clipPath><clipPath id="7c469aacbe"><path d="M 30.082031 0.0078125 C 13.558594 0.0078125 0.164062 13.402344 0.164062 29.925781 C 0.164062 46.449219 13.558594 59.84375 30.082031 59.84375 C 46.605469 59.84375 60 46.449219 60 29.925781 C 60 13.402344 46.605469 0.0078125 30.082031 0.0078125 Z M 30.082031 0.0078125 " clip-rule="nonzero"/></clipPath><clipPath id="e7196bc52f"><rect x="0" width="60" y="0" height="60"/></clipPath><mask id="c0731666a6"><g filter="url(#54efa86645)"><rect x="-81" width="972" fill="#000000" y="-179.999992" height="2159.99991" fill-opacity="0.45"/></g></mask><clipPath id="c18c8a7bb3"><path d="M 1 0.816406 L 60.835938 0.816406 L 60.835938 60.648438 L 1 60.648438 Z M 1 0.816406 " clip-rule="nonzero"/></clipPath><clipPath id="cac199ddf1"><path d="M 30.917969 0.816406 C 14.394531 0.816406 1 14.210938 1 30.734375 C 1 47.253906 14.394531 60.648438 30.917969 60.648438 C 47.441406 60.648438 60.835938 47.253906 60.835938 30.734375 C 60.835938 14.210938 47.441406 0.816406 30.917969 0.816406 Z M 30.917969 0.816406 " clip-rule="nonzero"/></clipPath><clipPath id="031d17eb0f"><rect x="0" width="61" y="0" height="61"/></clipPath><mask id="97a9f32607"><g filter="url(#54efa86645)"><rect x="-81" width="972" fill="#000000" y="-179.999992" height="2159.99991" fill-opacity="0.45"/></g></mask><clipPath id="cec99d879b"><path d="M 0 0.910156 L 51.082031 0.910156 L 51.082031 72.746094 L 0 72.746094 Z M 0 0.910156 " clip-rule="nonzero"/></clipPath><clipPath id="eb95c6f038"><path d="M 15.164062 0.910156 C -4.671875 0.910156 -20.753906 16.992188 -20.753906 36.828125 C -20.753906 56.664062 -4.671875 72.746094 15.164062 72.746094 C 35 72.746094 51.082031 56.664062 51.082031 36.828125 C 51.082031 16.992188 35 0.910156 15.164062 0.910156 Z M 15.164062 0.910156 " clip-rule="nonzero"/></clipPath><clipPath id="13906808eb"><rect x="0" width="52" y="0" height="73"/></clipPath><mask id="b94a284365"><g filter="url(#54efa86645)"><rect x="-81" width="972" fill="#000000" y="-179.999992" height="2159.99991" fill-opacity="0.45"/></g></mask><clipPath id="b63b954f4a"><path d="M 0.855469 0.984375 L 72.6875 0.984375 L 72.6875 72.820312 L 0.855469 72.820312 Z M 0.855469 0.984375 " clip-rule="nonzero"/></clipPath><clipPath id="b9fc034e83"><path d="M 36.769531 0.984375 C 16.933594 0.984375 0.855469 17.066406 0.855469 36.902344 C 0.855469 56.738281 16.933594 72.820312 36.769531 72.820312 C 56.609375 72.820312 72.6875 56.738281 72.6875 36.902344 C 72.6875 17.066406 56.609375 0.984375 36.769531 0.984375 Z M 36.769531 0.984375 " clip-rule="nonzero"/></clipPath><clipPath id="47168994c1"><rect x="0" width="73" y="0" height="73"/></clipPath><mask id="6c7711fd0b"><g filter="url(#54efa86645)"><rect x="-81" width="972" fill="#000000" y="-179.999992" height="2159.99991" fill-opacity="0.45"/></g></mask><clipPath id="449a954c5b"><path d="M 0.769531 0.46875 L 72.605469 0.46875 L 72.605469 72.300781 L 0.769531 72.300781 Z M 0.769531 0.46875 " clip-rule="nonzero"/></clipPath><clipPath id="cdca0e6f13"><path d="M 36.6875 0.46875 C 16.851562 0.46875 0.769531 16.546875 0.769531 36.382812 C 0.769531 56.222656 16.851562 72.300781 36.6875 72.300781 C 56.527344 72.300781 72.605469 56.222656 72.605469 36.382812 C 72.605469 16.546875 56.527344 0.46875 36.6875 0.46875 Z M 36.6875 0.46875 " clip-rule="nonzero"/></clipPath><clipPath id="0cf67bc9be"><rect x="0" width="73" y="0" height="73"/></clipPath><mask id="2cf3fa055e"><g filter="url(#54efa86645)"><rect x="-81" width="972" fill="#000000" y="-179.999992" height="2159.99991" fill-opacity="0.45"/></g></mask><clipPath id="79d374fe6a"><path d="M 0.0820312 0.820312 L 36 0.820312 L 36 72.65625 L 0.0820312 72.65625 Z M 0.0820312 0.820312 " clip-rule="nonzero"/></clipPath><clipPath id="30d32eb1eb"><path d="M 36 0.820312 C 16.164062 0.820312 0.0820312 16.898438 0.0820312 36.738281 C 0.0820312 56.574219 16.164062 72.65625 36 72.65625 C 55.835938 72.65625 71.917969 56.574219 71.917969 36.738281 C 71.917969 16.898438 55.835938 0.820312 36 0.820312 Z M 36 0.820312 " clip-rule="nonzero"/></clipPath><clipPath id="237fb19dc9"><rect x="0" width="36" y="0" height="73"/></clipPath><mask id="1d6f7f4d1c"><g filter="url(#54efa86645)"><rect x="-81" width="972" fill="#000000" y="-179.999992" height="2159.99991" fill-opacity="0.45"/></g></mask><clipPath id="6ab642c738"><path d="M 0.261719 0.695312 L 29.566406 0.695312 L 29.566406 30 L 0.261719 30 Z M 0.261719 0.695312 " clip-rule="nonzero"/></clipPath><clipPath id="d0501aba8c"><path d="M 14.914062 0.695312 C 6.824219 0.695312 0.261719 7.253906 0.261719 15.347656 C 0.261719 23.441406 6.824219 30 14.914062 30 C 23.007812 30 29.566406 23.441406 29.566406 15.347656 C 29.566406 7.253906 23.007812 0.695312 14.914062 0.695312 Z M 14.914062 0.695312 " clip-rule="nonzero"/></clipPath><clipPath id="20ea23fa90"><rect x="0" width="30" y="0" height="31"/></clipPath><mask id="3ad47eb662"><g filter="url(#54efa86645)"><rect x="-81" width="972" fill="#000000" y="-179.999992" height="2159.99991" fill-opacity="0.45"/></g></mask><clipPath id="ca1e58a15c"><path d="M 0.597656 0.355469 L 29.902344 0.355469 L 29.902344 29.660156 L 0.597656 29.660156 Z M 0.597656 0.355469 " clip-rule="nonzero"/></clipPath><clipPath id="b984acef08"><path d="M 15.25 0.355469 C 7.15625 0.355469 0.597656 6.917969 0.597656 15.007812 C 0.597656 23.101562 7.15625 29.660156 15.25 29.660156 C 23.34375 29.660156 29.902344 23.101562 29.902344 15.007812 C 29.902344 6.917969 23.34375 0.355469 15.25 0.355469 Z M 15.25 0.355469 " clip-rule="nonzero"/></clipPath><clipPath id="b0e41cc7f6"><rect x="0" width="30" y="0" height="30"/></clipPath><mask id="6d3ec86e78"><g filter="url(#54efa86645)"><rect x="-81" width="972" fill="#000000" y="-179.999992" height="2159.99991" fill-opacity="0.45"/></g></mask><clipPath id="265e3f83a6"><path d="M 0.777344 0.953125 L 30.082031 0.953125 L 30.082031 30.257812 L 0.777344 30.257812 Z M 0.777344 0.953125 " clip-rule="nonzero"/></clipPath><clipPath id="bd0a1abf4f"><path d="M 15.429688 0.953125 C 7.335938 0.953125 0.777344 7.515625 0.777344 15.605469 C 0.777344 23.699219 7.335938 30.257812 15.429688 30.257812 C 23.523438 30.257812 30.082031 23.699219 30.082031 15.605469 C 30.082031 7.515625 23.523438 0.953125 15.429688 0.953125 Z M 15.429688 0.953125 " clip-rule="nonzero"/></clipPath><clipPath id="b2e4611139"><rect x="0" width="31" y="0" height="31"/></clipPath><mask id="7c88fc64bd"><g filter="url(#54efa86645)"><rect x="-81" width="972" fill="#000000" y="-179.999992" height="2159.99991" fill-opacity="0.45"/></g></mask><clipPath id="62b31b9124"><path d="M 0.777344 0.238281 L 30.082031 0.238281 L 30.082031 29.542969 L 0.777344 29.542969 Z M 0.777344 0.238281 " clip-rule="nonzero"/></clipPath><clipPath id="dee5dcb67a"><path d="M 15.429688 0.238281 C 7.335938 0.238281 0.777344 6.800781 0.777344 14.890625 C 0.777344 22.984375 7.335938 29.542969 15.429688 29.542969 C 23.523438 29.542969 30.082031 22.984375 30.082031 14.890625 C 30.082031 6.800781 23.523438 0.238281 15.429688 0.238281 Z M 15.429688 0.238281 " clip-rule="nonzero"/></clipPath><clipPath id="f1a3e5e20c"><rect x="0" width="31" y="0" height="30"/></clipPath><mask id="0f1ce47bf2"><g filter="url(#54efa86645)"><rect x="-81" width="972" fill="#000000" y="-179.999992" height="2159.99991" fill-opacity="0.45"/></g></mask><clipPath id="7357dc3e18"><path d="M 1 0.984375 L 30.304688 0.984375 L 30.304688 30.289062 L 1 30.289062 Z M 1 0.984375 " clip-rule="nonzero"/></clipPath><clipPath id="fa0c4285c3"><path d="M 15.652344 0.984375 C 7.558594 0.984375 1 7.546875 1 15.636719 C 1 23.730469 7.558594 30.289062 15.652344 30.289062 C 23.746094 30.289062 30.304688 23.730469 30.304688 15.636719 C 30.304688 7.546875 23.746094 0.984375 15.652344 0.984375 Z M 15.652344 0.984375 " clip-rule="nonzero"/></clipPath><clipPath id="91fa0fe051"><rect x="0" width="31" y="0" height="31"/></clipPath><mask id="1a0a381c25"><g filter="url(#54efa86645)"><rect x="-81" width="972" fill="#000000" y="-179.999992" height="2159.99991" fill-opacity="0.45"/></g></mask><clipPath id="4ea5c4c3b7"><path d="M 0.554688 0.972656 L 60.390625 0.972656 L 60.390625 60.804688 L 0.554688 60.804688 Z M 0.554688 0.972656 " clip-rule="nonzero"/></clipPath><clipPath id="9b946f30c8"><path d="M 30.472656 0.972656 C 13.949219 0.972656 0.554688 14.367188 0.554688 30.886719 C 0.554688 47.410156 13.949219 60.804688 30.472656 60.804688 C 46.996094 60.804688 60.390625 47.410156 60.390625 30.886719 C 60.390625 14.367188 46.996094 0.972656 30.472656 0.972656 Z M 30.472656 0.972656 " clip-rule="nonzero"/></clipPath><clipPath id="72f42a7669"><rect x="0" width="61" y="0" height="61"/></clipPath><mask id="20d3127175"><g filter="url(#54efa86645)"><rect x="-81" width="972" fill="#000000" y="-179.999992" height="2159.99991" fill-opacity="0.45"/></g></mask><clipPath id="7e35ac7aaa"><path d="M 1.082031 0.898438 L 60.917969 0.898438 L 60.917969 60.734375 L 1.082031 60.734375 Z M 1.082031 0.898438 " clip-rule="nonzero"/></clipPath><clipPath id="7c7337dc32"><path d="M 31 0.898438 C 14.476562 0.898438 1.082031 14.292969 1.082031 30.816406 C 1.082031 47.339844 14.476562 60.734375 31 60.734375 C 47.523438 60.734375 60.917969 47.339844 60.917969 30.816406 C 60.917969 14.292969 47.523438 0.898438 31 0.898438 Z M 31 0.898438 " clip-rule="nonzero"/></clipPath><clipPath id="ae4f03159a"><rect x="0" width="62" y="0" height="61"/></clipPath><mask id="790949a895"><g filter="url(#54efa86645)"><rect x="-81" width="972" fill="#000000" y="-179.999992" height="2159.99991" fill-opacity="0.45"/></g></mask><clipPath id="cb8271cdc3"><path d="M 0.1875 1.003906 L 29.492188 1.003906 L 29.492188 30.308594 L 0.1875 30.308594 Z M 0.1875 1.003906 " clip-rule="nonzero"/></clipPath><clipPath id="a802b52462"><path d="M 14.839844 1.003906 C 6.746094 1.003906 0.1875 7.5625 0.1875 15.65625 C 0.1875 23.746094 6.746094 30.308594 14.839844 30.308594 C 22.933594 30.308594 29.492188 23.746094 29.492188 15.65625 C 29.492188 7.5625 22.933594 1.003906 14.839844 1.003906 Z M 14.839844 1.003906 " clip-rule="nonzero"/></clipPath><clipPath id="836291640d"><rect x="0" width="30" y="0" height="31"/></clipPath><mask id="312c1d1147"><g filter="url(#54efa86645)"><rect x="-81" width="972" fill="#000000" y="-179.999992" height="2159.99991" fill-opacity="0.45"/></g></mask><clipPath id="ca12293dfa"><path d="M 0.722656 0.488281 L 30.027344 0.488281 L 30.027344 29.792969 L 0.722656 29.792969 Z M 0.722656 0.488281 " clip-rule="nonzero"/></clipPath><clipPath id="719a1588a0"><path d="M 15.375 0.488281 C 7.28125 0.488281 0.722656 7.050781 0.722656 15.140625 C 0.722656 23.234375 7.28125 29.792969 15.375 29.792969 C 23.464844 29.792969 30.027344 23.234375 30.027344 15.140625 C 30.027344 7.050781 23.464844 0.488281 15.375 0.488281 Z M 15.375 0.488281 " clip-rule="nonzero"/></clipPath><clipPath id="501e72ca04"><rect x="0" width="31" y="0" height="30"/></clipPath><mask id="2389dfddc6"><g filter="url(#54efa86645)"><rect x="-81" width="972" fill="#000000" y="-179.999992" height="2159.99991" fill-opacity="0.45"/></g></mask><clipPath id="d655b1ff8b"><path d="M 0.472656 0.890625 L 60.308594 0.890625 L 60.308594 60.726562 L 0.472656 60.726562 Z M 0.472656 0.890625 " clip-rule="nonzero"/></clipPath><clipPath id="28b23f2348"><path d="M 30.390625 0.890625 C 13.867188 0.890625 0.472656 14.285156 0.472656 30.808594 C 0.472656 47.332031 13.867188 60.726562 30.390625 60.726562 C 46.914062 60.726562 60.308594 47.332031 60.308594 30.808594 C 60.308594 14.285156 46.914062 0.890625 30.390625 0.890625 Z M 30.390625 0.890625 " clip-rule="nonzero"/></clipPath><clipPath id="2fb08bb464"><rect x="0" width="61" y="0" height="61"/></clipPath><mask id="9520892e29"><g filter="url(#54efa86645)"><rect x="-81" width="972" fill="#000000" y="-179.999992" height="2159.99991" fill-opacity="0.45"/></g></mask><clipPath id="c716e65f2b"><path d="M 0.390625 0.164062 L 60.226562 0.164062 L 60.226562 60 L 0.390625 60 Z M 0.390625 0.164062 " clip-rule="nonzero"/></clipPath><clipPath id="bbd012920f"><path d="M 30.308594 0.164062 C 13.785156 0.164062 0.390625 13.558594 0.390625 30.082031 C 0.390625 46.605469 13.785156 60 30.308594 60 C 46.832031 60 60.226562 46.605469 60.226562 30.082031 C 60.226562 13.558594 46.832031 0.164062 30.308594 0.164062 Z M 30.308594 0.164062 " clip-rule="nonzero"/></clipPath><clipPath id="8acf6dcaa6"><rect x="0" width="61" y="0" height="61"/></clipPath><mask id="15902bdd98"><g filter="url(#54efa86645)"><rect x="-81" width="972" fill="#000000" y="-179.999992" height="2159.99991" fill-opacity="0.45"/></g></mask><clipPath id="0238a363a4"><path d="M 1.195312 0.957031 L 61.03125 0.957031 L 61.03125 60.789062 L 1.195312 60.789062 Z M 1.195312 0.957031 " clip-rule="nonzero"/></clipPath><clipPath id="b5f959aae9"><path d="M 31.113281 0.957031 C 14.589844 0.957031 1.195312 14.351562 1.195312 30.871094 C 1.195312 47.394531 14.589844 60.789062 31.113281 60.789062 C 47.636719 60.789062 61.03125 47.394531 61.03125 30.871094 C 61.03125 14.351562 47.636719 0.957031 31.113281 0.957031 Z M 31.113281 0.957031 " clip-rule="nonzero"/></clipPath><clipPath id="28c81ab418"><rect x="0" width="62" y="0" height="61"/></clipPath><mask id="ba0726e3d8"><g filter="url(#54efa86645)"><rect x="-81" width="972" fill="#000000" y="-179.999992" height="2159.99991" fill-opacity="0.45"/></g></mask><clipPath id="68f12a71af"><path d="M 0.511719 0.648438 L 29.816406 0.648438 L 29.816406 29.957031 L 0.511719 29.957031 Z M 0.511719 0.648438 " clip-rule="nonzero"/></clipPath><clipPath id="583055caee"><path d="M 15.164062 0.648438 C 7.074219 0.648438 0.511719 7.210938 0.511719 15.304688 C 0.511719 23.394531 7.074219 29.957031 15.164062 29.957031 C 23.257812 29.957031 29.816406 23.394531 29.816406 15.304688 C 29.816406 7.210938 23.257812 0.648438 15.164062 0.648438 Z M 15.164062 0.648438 " clip-rule="nonzero"/></clipPath><clipPath id="c45cbdf023"><rect x="0" width="30" y="0" height="31"/></clipPath><mask id="252a5d290c"><g filter="url(#54efa86645)"><rect x="-81" width="972" fill="#000000" y="-179.999992" height="2159.99991" fill-opacity="0.45"/></g></mask><clipPath id="99fe91718e"><path d="M 0.0820312 0.164062 L 24 0.164062 L 24 60 L 0.0820312 60 Z M 0.0820312 0.164062 " clip-rule="nonzero"/></clipPath><clipPath id="63ee01ebf9"><path d="M 30 0.164062 C 13.476562 0.164062 0.0820312 13.558594 0.0820312 30.082031 C 0.0820312 46.605469 13.476562 60 30 60 C 46.523438 60 59.917969 46.605469 59.917969 30.082031 C 59.917969 13.558594 46.523438 0.164062 30 0.164062 Z M 30 0.164062 " clip-rule="nonzero"/></clipPath><clipPath id="41994df3c8"><rect x="0" width="24" y="0" height="61"/></clipPath><clipPath id="eaade2c57c"><path d="M 1.761719 1634.042969 L 190 1634.042969 L 190 1800 L 1.761719 1800 Z M 1.761719 1634.042969 " clip-rule="nonzero"/></clipPath><clipPath id="066ca4c179"><path d="M 35 1634.042969 L 223.761719 1634.042969 L 223.761719 1800 L 35 1800 Z M 35 1634.042969 " clip-rule="nonzero"/></clipPath></defs><rect x="-81" width="972" fill="#ffffff" y="-179.999992" height="2159.99991" fill-opacity="1"/><rect x="-81" width="972" fill="#fffdf7" y="-179.999992" height="2159.99991" fill-opacity="1"/><g clip-path="url(#9ce23bc3e4)"><g clip-path="url(#600a345b81)"><path fill="#9ad0cb" d="M -266.71875 -177.621094 L 178.671875 -177.621094 L 178.671875 114.738281 L -266.71875 114.738281 Z M -266.71875 -177.621094 " fill-opacity="1" fill-rule="nonzero"/></g></g><g clip-path="url(#7a1ec7f857)"><g clip-path="url(#17680d76a5)"><path fill="#9ad0cb" d="M 696.375 1653.820312 L 1141.765625 1653.820312 L 1141.765625 1946.179688 L 696.375 1946.179688 Z M 696.375 1653.820312 " fill-opacity="1" fill-rule="nonzero"/></g></g><g mask="url(#2a644631c3)"><g transform="matrix(1, 0, 0, 1, 574, 151)"><g clip-path="url(#99aeddfd10)"><g clip-path="url(#a7ee295dcc)"><g clip-path="url(#2da89072e6)"><path fill="#87c6c0" d="M 0.261719 1.078125 L 60.097656 1.078125 L 60.097656 60.914062 L 0.261719 60.914062 Z M 0.261719 1.078125 " fill-opacity="1" fill-rule="nonzero"/></g></g></g></g></g><g mask="url(#085d52ffcf)"><g transform="matrix(1, 0, 0, 1, 163, 1251)"><g clip-path="url(#a5e5b1dfe6)"><g clip-path="url(#f96a268ebb)"><g clip-path="url(#19197b872c)"><path fill="#87c6c0" d="M 0.761719 0.65625 L 60.597656 0.65625 L 60.597656 60.488281 L 0.761719 60.488281 Z M 0.761719 0.65625 " fill-opacity="1" fill-rule="nonzero"/></g></g></g></g></g><g mask="url(#968fcf46a7)"><g transform="matrix(1, 0, 0, 1, 50, 380)"><g clip-path="url(#9ff88b355a)"><g clip-path="url(#989a503843)"><g clip-path="url(#2413ec974d)"><path fill="#87c6c0" d="M 1.082031 0.210938 L 60.917969 0.210938 L 60.917969 60.046875 L 1.082031 60.046875 Z M 1.082031 0.210938 " fill-opacity="1" fill-rule="nonzero"/></g></g></g></g></g><g mask="url(#72ade1ae8a)"><g transform="matrix(1, 0, 0, 1, 750, 600)"><g clip-path="url(#e7196bc52f)"><g clip-path="url(#a48a9801a6)"><g clip-path="url(#7c469aacbe)"><path fill="#87c6c0" d="M 0.164062 0.0078125 L 60 0.0078125 L 60 59.84375 L 0.164062 59.84375 Z M 0.164062 0.0078125 " fill-opacity="1" fill-rule="nonzero"/></g></g></g></g></g><g mask="url(#c0731666a6)"><g transform="matrix(1, 0, 0, 1, 404, 750)"><g clip-path="url(#031d17eb0f)"><g clip-path="url(#c18c8a7bb3)"><g clip-path="url(#cac199ddf1)"><path fill="#87c6c0" d="M 1 0.816406 L 60.835938 0.816406 L 60.835938 60.648438 L 1 60.648438 Z M 1 0.816406 " fill-opacity="1" fill-rule="nonzero"/></g></g></g></g></g><g mask="url(#97a9f32607)"><g transform="matrix(1, 0, 0, 1, 0, 1068)"><g clip-path="url(#13906808eb)"><g clip-path="url(#cec99d879b)"><g clip-path="url(#eb95c6f038)"><path fill="#87c6c0" d="M -20.753906 0.910156 L 51.082031 0.910156 L 51.082031 72.746094 L -20.753906 72.746094 Z M -20.753906 0.910156 " fill-opacity="1" fill-rule="nonzero"/></g></g></g></g></g><g mask="url(#b94a284365)"><g transform="matrix(1, 0, 0, 1, 471, 1581)"><g clip-path="url(#47168994c1)"><g clip-path="url(#b63b954f4a)"><g clip-path="url(#b9fc034e83)"><path fill="#87c6c0" d="M 0.855469 0.984375 L 72.6875 0.984375 L 72.6875 72.820312 L 0.855469 72.820312 Z M 0.855469 0.984375 " fill-opacity="1" fill-rule="nonzero"/></g></g></g></g></g><g mask="url(#6c7711fd0b)"><g transform="matrix(1, 0, 0, 1, 507, 476)"><g clip-path="url(#0cf67bc9be)"><g clip-path="url(#449a954c5b)"><g clip-path="url(#cdca0e6f13)"><path fill="#87c6c0" d="M 0.769531 0.46875 L 72.605469 0.46875 L 72.605469 72.300781 L 0.769531 72.300781 Z M 0.769531 0.46875 " fill-opacity="1" fill-rule="nonzero"/></g></g></g></g></g><g mask="url(#2cf3fa055e)"><g transform="matrix(1, 0, 0, 1, 774, 1179)"><g clip-path="url(#237fb19dc9)"><g clip-path="url(#79d374fe6a)"><g clip-path="url(#30d32eb1eb)"><path fill="#87c6c0" d="M 0.0820312 0.820312 L 71.917969 0.820312 L 71.917969 72.65625 L 0.0820312 72.65625 Z M 0.0820312 0.820312 " fill-opacity="1" fill-rule="nonzero"/></g></g></g></g></g><g mask="url(#1d6f7f4d1c)"><g transform="matrix(1, 0, 0, 1, 574, 952)"><g clip-path="url(#20ea23fa90)"><g clip-path="url(#6ab642c738)"><g clip-path="url(#d0501aba8c)"><path fill="#87c6c0" d="M 0.261719 0.695312 L 29.566406 0.695312 L 29.566406 30 L 0.261719 30 Z M 0.261719 0.695312 " fill-opacity="1" fill-rule="nonzero"/></g></g></g></g></g><g mask="url(#3ad47eb662)"><g transform="matrix(1, 0, 0, 1, 223, 585)"><g clip-path="url(#b0e41cc7f6)"><g clip-path="url(#ca1e58a15c)"><g clip-path="url(#b984acef08)"><path fill="#87c6c0" d="M 0.597656 0.355469 L 29.902344 0.355469 L 29.902344 29.660156 L 0.597656 29.660156 Z M 0.597656 0.355469 " fill-opacity="1" fill-rule="nonzero"/></g></g></g></g></g><g mask="url(#6d3ec86e78)"><g transform="matrix(1, 0, 0, 1, 750, 50)"><g clip-path="url(#b2e4611139)"><g clip-path="url(#265e3f83a6)"><g clip-path="url(#bd0a1abf4f)"><path fill="#87c6c0" d="M 0.777344 0.953125 L 30.082031 0.953125 L 30.082031 30.257812 L 0.777344 30.257812 Z M 0.777344 0.953125 " fill-opacity="1" fill-rule="nonzero"/></g></g></g></g></g><g mask="url(#7c88fc64bd)"><g transform="matrix(1, 0, 0, 1, 21, 1459)"><g clip-path="url(#f1a3e5e20c)"><g clip-path="url(#62b31b9124)"><g clip-path="url(#dee5dcb67a)"><path fill="#87c6c0" d="M 0.777344 0.238281 L 30.082031 0.238281 L 30.082031 29.542969 L 0.777344 29.542969 Z M 0.777344 0.238281 " fill-opacity="1" fill-rule="nonzero"/></g></g></g></g></g><g mask="url(#0f1ce47bf2)"><g transform="matrix(1, 0, 0, 1, 728, 1581)"><g clip-path="url(#91fa0fe051)"><g clip-path="url(#7357dc3e18)"><g clip-path="url(#fa0c4285c3)"><path fill="#87c6c0" d="M 1 0.984375 L 30.304688 0.984375 L 30.304688 30.289062 L 1 30.289062 Z M 1 0.984375 " fill-opacity="1" fill-rule="nonzero"/></g></g></g></g></g><g mask="url(#1a0a381c25)"><g transform="matrix(1, 0, 0, 1, 267, 1002)"><g clip-path="url(#72f42a7669)"><g clip-path="url(#4ea5c4c3b7)"><g clip-path="url(#9b946f30c8)"><path fill="#87c6c0" d="M 0.554688 0.972656 L 60.390625 0.972656 L 60.390625 60.804688 L 0.554688 60.804688 Z M 0.554688 0.972656 " fill-opacity="1" fill-rule="nonzero"/></g></g></g></g></g><g mask="url(#20d3127175)"><g transform="matrix(1, 0, 0, 1, 50, 720)"><g clip-path="url(#ae4f03159a)"><g clip-path="url(#7e35ac7aaa)"><g clip-path="url(#7c7337dc32)"><path fill="#87c6c0" d="M 1.082031 0.898438 L 60.917969 0.898438 L 60.917969 60.734375 L 1.082031 60.734375 Z M 1.082031 0.898438 " fill-opacity="1" fill-rule="nonzero"/></g></g></g></g></g><g mask="url(#790949a895)"><g transform="matrix(1, 0, 0, 1, 484, 1236)"><g clip-path="url(#836291640d)"><g clip-path="url(#cb8271cdc3)"><g clip-path="url(#a802b52462)"><path fill="#87c6c0" d="M 0.1875 1.003906 L 29.492188 1.003906 L 29.492188 30.308594 L 0.1875 30.308594 Z M 0.1875 1.003906 " fill-opacity="1" fill-rule="nonzero"/></g></g></g></g></g><g mask="url(#312c1d1147)"><g transform="matrix(1, 0, 0, 1, 681, 1311)"><g clip-path="url(#501e72ca04)"><g clip-path="url(#ca12293dfa)"><g clip-path="url(#719a1588a0)"><path fill="#87c6c0" d="M 0.722656 0.488281 L 30.027344 0.488281 L 30.027344 29.792969 L 0.722656 29.792969 Z M 0.722656 0.488281 " fill-opacity="1" fill-rule="nonzero"/></g></g></g></g></g><g mask="url(#2389dfddc6)"><g transform="matrix(1, 0, 0, 1, 297, 1473)"><g clip-path="url(#2fb08bb464)"><g clip-path="url(#d655b1ff8b)"><g clip-path="url(#28b23f2348)"><path fill="#87c6c0" d="M 0.472656 0.890625 L 60.308594 0.890625 L 60.308594 60.726562 L 0.472656 60.726562 Z M 0.472656 0.890625 " fill-opacity="1" fill-rule="nonzero"/></g></g></g></g></g><g mask="url(#9520892e29)"><g transform="matrix(1, 0, 0, 1, 327, 21)"><g clip-path="url(#8acf6dcaa6)"><g clip-path="url(#c716e65f2b)"><g clip-path="url(#bbd012920f)"><path fill="#87c6c0" d="M 0.390625 0.164062 L 60.226562 0.164062 L 60.226562 60 L 0.390625 60 Z M 0.390625 0.164062 " fill-opacity="1" fill-rule="nonzero"/></g></g></g></g></g><g mask="url(#15902bdd98)"><g transform="matrix(1, 0, 0, 1, 300, 307)"><g clip-path="url(#28c81ab418)"><g clip-path="url(#0238a363a4)"><g clip-path="url(#b5f959aae9)"><path fill="#87c6c0" d="M 1.195312 0.957031 L 61.03125 0.957031 L 61.03125 60.789062 L 1.195312 60.789062 Z M 1.195312 0.957031 " fill-opacity="1" fill-rule="nonzero"/></g></g></g></g></g><g mask="url(#ba0726e3d8)"><g transform="matrix(1, 0, 0, 1, 735, 278)"><g clip-path="url(#c45cbdf023)"><g clip-path="url(#68f12a71af)"><g clip-path="url(#583055caee)"><path fill="#87c6c0" d="M 0.511719 0.648438 L 29.816406 0.648438 L 29.816406 29.957031 L 0.511719 29.957031 Z M 0.511719 0.648438 " fill-opacity="1" fill-rule="nonzero"/></g></g></g></g></g><g mask="url(#252a5d290c)"><g transform="matrix(1, 0, 0, 1, 786, 922)"><g clip-path="url(#41994df3c8)"><g clip-path="url(#99fe91718e)"><g clip-path="url(#63ee01ebf9)"><path fill="#87c6c0" d="M 0.0820312 0.164062 L 59.917969 0.164062 L 59.917969 60 L 0.0820312 60 Z M 0.0820312 0.164062 " fill-opacity="1" fill-rule="nonzero"/></g></g></g></g></g><path fill="#ffffff" d="M 5.433594 1661.589844 L 146.078125 1635.265625 C 146.484375 1635.191406 146.882812 1635.199219 147.28125 1635.292969 C 147.683594 1635.386719 148.050781 1635.558594 148.382812 1635.808594 C 148.71875 1636.054688 148.996094 1636.363281 149.214844 1636.730469 C 149.433594 1637.097656 149.582031 1637.492188 149.652344 1637.921875 L 183.789062 1843.425781 C 183.863281 1843.851562 183.851562 1844.277344 183.765625 1844.699219 C 183.675781 1845.125 183.515625 1845.515625 183.28125 1845.871094 C 183.046875 1846.226562 182.753906 1846.519531 182.410156 1846.753906 C 182.066406 1846.984375 181.691406 1847.140625 181.289062 1847.214844 L 40.640625 1873.539062 C 40.238281 1873.613281 39.835938 1873.605469 39.4375 1873.511719 C 39.039062 1873.417969 38.671875 1873.246094 38.335938 1872.996094 C 38.003906 1872.746094 37.726562 1872.441406 37.503906 1872.074219 C 37.285156 1871.707031 37.140625 1871.3125 37.070312 1870.882812 L 2.929688 1665.378906 C 2.859375 1664.953125 2.867188 1664.527344 2.957031 1664.105469 C 3.046875 1663.679688 3.207031 1663.289062 3.441406 1662.933594 C 3.675781 1662.578125 3.964844 1662.285156 4.3125 1662.050781 C 4.65625 1661.820312 5.027344 1661.664062 5.433594 1661.589844 Z M 5.433594 1661.589844 " fill-opacity="1" fill-rule="nonzero"/><g clip-path="url(#eaade2c57c)"><path stroke-linecap="butt" transform="matrix(0.253042, -0.0473591, 0.0446181, 0.268587, 252.015641, 1573.942141)" fill="none" stroke-linejoin="miter" d="M -1000.893625 149.84443 L -445.077171 149.839819 C -443.47286 149.846372 -441.950722 150.143853 -440.4833 150.751648 C -439.000907 151.362083 -437.703001 152.230862 -436.589583 153.357985 C -435.458706 154.473643 -434.592199 155.775384 -433.987573 157.249105 C -433.382948 158.722825 -433.065223 160.247763 -433.069316 161.846849 L -433.07663 926.97547 C -433.063264 928.563091 -433.379275 930.092634 -433.977262 931.557913 C -434.592707 933.034657 -435.455258 934.336937 -436.579888 935.462112 C -437.704517 936.587287 -439.013928 937.447181 -440.480664 938.061178 C -441.944913 938.66107 -443.48168 938.971845 -445.07102 938.967932 L -1000.902445 938.969903 C -1002.491784 938.96599 -1004.028894 938.665868 -1005.496316 938.058073 C -1006.963738 937.450278 -1008.261643 936.581499 -1009.390033 935.451737 C -1010.503451 934.324614 -1011.372446 933.036977 -1011.992043 931.560617 C -1012.596668 930.086897 -1012.899422 928.564599 -1012.895329 926.965513 L -1012.902986 161.834252 C -1012.90138 160.249271 -1012.600341 158.717088 -1011.987383 157.254449 C -1011.371938 155.777704 -1010.509386 154.475424 -1009.384757 153.35025 C -1008.260128 152.225075 -1006.965688 151.362541 -1005.483981 150.751184 C -1004.019732 150.151292 -1002.497936 149.837877 -1000.893625 149.84443 Z M -1000.893625 149.84443 " stroke="#000000" stroke-width="4" stroke-opacity="1" stroke-miterlimit="4"/></g><path stroke-linecap="butt" transform="matrix(0.253042, -0.0473591, 0.0446181, 0.268587, 252.015641, 1573.942141)" fill="none" stroke-linejoin="miter" d="M -488.833031 718.244368 L -916.923647 718.25683 " stroke="#000000" stroke-width="2.375" stroke-opacity="1" stroke-miterlimit="4"/><path stroke-linecap="butt" transform="matrix(0.253042, -0.0473591, 0.0446181, 0.268587, 252.015641, 1573.942141)" fill="none" stroke-linejoin="miter" d="M -488.83568 669.057082 L -916.923809 669.055439 " stroke="#000000" stroke-width="2.375" stroke-opacity="1" stroke-miterlimit="4"/><path stroke-linecap="butt" transform="matrix(0.253042, -0.0473591, 0.0446181, 0.268587, 252.015641, 1573.942141)" fill="none" stroke-linejoin="miter" d="M -488.823357 619.872436 L -916.926458 619.868153 " stroke="#000000" stroke-width="2.375" stroke-opacity="1" stroke-miterlimit="4"/><path stroke-linecap="butt" transform="matrix(0.253042, -0.0473591, 0.0446181, 0.268587, 252.015641, 1573.942141)" fill="none" stroke-linejoin="miter" d="M -488.826006 570.68515 L -916.929107 570.680867 " stroke="#000000" stroke-width="2.375" stroke-opacity="1" stroke-miterlimit="4"/><path stroke-linecap="butt" transform="matrix(0.253042, -0.0473591, 0.0446181, 0.268587, 252.015641, 1573.942141)" fill="none" stroke-linejoin="miter" d="M -488.826168 521.483759 L -916.931756 521.493581 " stroke="#000000" stroke-width="2.375" stroke-opacity="1" stroke-miterlimit="4"/><path stroke-linecap="butt" transform="matrix(0.253042, -0.0473591, 0.0446181, 0.268587, 252.015641, 1573.942141)" fill="none" stroke-linejoin="miter" d="M -488.828816 472.296473 L -916.934404 472.306295 " stroke="#000000" stroke-width="2.375" stroke-opacity="1" stroke-miterlimit="4"/><path stroke-linecap="butt" transform="matrix(0.253042, -0.0473591, 0.0446181, 0.268587, 252.015641, 1573.942141)" fill="none" stroke-linejoin="miter" d="M -488.831465 423.109187 L -916.934566 423.104904 " stroke="#000000" stroke-width="2.375" stroke-opacity="1" stroke-miterlimit="4"/><path stroke-linecap="butt" transform="matrix(0.253042, -0.0473591, 0.0446181, 0.268587, 252.015641, 1573.942141)" fill="none" stroke-linejoin="miter" d="M -488.834114 373.921901 L -916.937215 373.917618 " stroke="#000000" stroke-width="2.375" stroke-opacity="1" stroke-miterlimit="4"/><path stroke-linecap="butt" transform="matrix(0.253042, -0.0473591, 0.0446181, 0.268587, 252.015641, 1573.942141)" fill="none" stroke-linejoin="miter" d="M -488.836763 324.734615 L -916.924892 324.732972 " stroke="#000000" stroke-width="2.375" stroke-opacity="1" stroke-miterlimit="4"/><path stroke-linecap="butt" transform="matrix(0.253042, -0.0473591, 0.0446181, 0.268587, 252.015641, 1573.942141)" fill="none" stroke-linejoin="miter" d="M -488.821953 275.535863 L -916.927541 275.545686 " stroke="#000000" stroke-width="2.375" stroke-opacity="1" stroke-miterlimit="4"/><path stroke-linecap="butt" transform="matrix(0.253042, -0.0473591, 0.0446181, 0.268587, 252.015641, 1573.942141)" fill="none" stroke-linejoin="miter" d="M -488.824602 226.348577 L -916.927703 226.344294 " stroke="#000000" stroke-width="2.375" stroke-opacity="1" stroke-miterlimit="4"/><path stroke-linecap="butt" transform="matrix(0.256945, 0, 0, 0.27273, 347.00735, 1561.293158)" fill-opacity="1" fill="#ffffff" fill-rule="nonzero" stroke-linejoin="miter" d="M -1184.999441 313.495818 L -629.175223 313.495818 C -627.578944 313.495818 -626.043476 313.796596 -624.584021 314.398152 C -623.109364 315.01403 -621.817138 315.873396 -620.692142 317.004893 C -619.551943 318.136391 -618.685392 319.425439 -618.077286 320.900683 C -617.46918 322.361605 -617.165126 323.89414 -617.165126 325.483966 L -617.165126 1090.61998 C -617.165126 1092.209806 -617.46918 1093.742341 -618.077286 1095.217585 C -618.685392 1096.678507 -619.551943 1097.981878 -620.692142 1099.099053 C -621.817138 1100.23055 -623.109364 1101.104239 -624.584021 1101.705794 C -626.043476 1102.321673 -627.578944 1102.622451 -629.175223 1102.622451 L -1184.999441 1102.622451 C -1186.595719 1102.622451 -1188.115985 1102.321673 -1189.590642 1101.705794 C -1191.065299 1101.104239 -1192.357525 1100.23055 -1193.482521 1099.099053 C -1194.607518 1097.981878 -1195.474069 1096.678507 -1196.082175 1095.217585 C -1196.690281 1093.742341 -1196.994334 1092.209806 -1196.994334 1090.61998 L -1196.994334 325.483966 C -1196.994334 323.89414 -1196.690281 322.361605 -1196.082175 320.900683 C -1195.474069 319.425439 -1194.607518 318.136391 -1193.482521 317.004893 C -1192.357525 315.873396 -1191.065299 315.01403 -1189.590642 314.398152 C -1188.115985 313.796596 -1186.595719 313.495818 -1184.999441 313.495818 Z M -1184.999441 313.495818 " stroke="#000000" stroke-width="4" stroke-opacity="1" stroke-miterlimit="4"/><path stroke-linecap="butt" transform="matrix(0.256945, 0, 0, 0.27273, 347.00735, 1561.293158)" fill="none" stroke-linejoin="miter" d="M -673.019676 832.710091 L -1101.126401 832.710091 " stroke="#000000" stroke-width="2.375" stroke-opacity="1" stroke-miterlimit="4"/><path stroke-linecap="butt" transform="matrix(0.256945, 0, 0, 0.27273, 347.00735, 1561.293158)" fill="none" stroke-linejoin="miter" d="M -673.019676 783.525742 L -1101.126401 783.525742 " stroke="#000000" stroke-width="2.375" stroke-opacity="1" stroke-miterlimit="4"/><path stroke-linecap="butt" transform="matrix(0.256945, 0, 0, 0.27273, 347.00735, 1561.293158)" fill="none" stroke-linejoin="miter" d="M -673.019676 734.327071 L -1101.126401 734.327071 " stroke="#000000" stroke-width="2.375" stroke-opacity="1" stroke-miterlimit="4"/><path stroke-linecap="butt" transform="matrix(0.256945, 0, 0, 0.27273, 347.00735, 1561.293158)" fill="none" stroke-linejoin="miter" d="M -673.019676 685.142723 L -1101.126401 685.142723 " stroke="#000000" stroke-width="2.375" stroke-opacity="1" stroke-miterlimit="4"/><path stroke-linecap="butt" transform="matrix(0.256945, 0, 0, 0.27273, 347.00735, 1561.293158)" fill="none" stroke-linejoin="miter" d="M -673.019676 635.944052 L -1101.126401 635.944052 " stroke="#000000" stroke-width="2.375" stroke-opacity="1" stroke-miterlimit="4"/><path stroke-linecap="butt" transform="matrix(0.256945, 0, 0, 0.27273, 347.00735, 1561.293158)" fill="none" stroke-linejoin="miter" d="M -673.019676 586.759703 L -1101.126401 586.759703 " stroke="#000000" stroke-width="2.375" stroke-opacity="1" stroke-miterlimit="4"/><path stroke-linecap="butt" transform="matrix(0.256945, 0, 0, 0.27273, 347.00735, 1561.293158)" fill="none" stroke-linejoin="miter" d="M -673.019676 537.575355 L -1101.126401 537.575355 " stroke="#000000" stroke-width="2.375" stroke-opacity="1" stroke-miterlimit="4"/><path stroke-linecap="butt" transform="matrix(0.256945, 0, 0, 0.27273, 347.00735, 1561.293158)" fill="none" stroke-linejoin="miter" d="M -673.019676 488.376684 L -1101.126401 488.376684 " stroke="#000000" stroke-width="2.375" stroke-opacity="1" stroke-miterlimit="4"/><path stroke-linecap="butt" transform="matrix(0.256945, 0, 0, 0.27273, 347.00735, 1561.293158)" fill="none" stroke-linejoin="miter" d="M -673.019676 439.192335 L -1101.126401 439.192335 " stroke="#000000" stroke-width="2.375" stroke-opacity="1" stroke-miterlimit="4"/><path stroke-linecap="butt" transform="matrix(0.256945, 0, 0, 0.27273, 347.00735, 1561.293158)" fill="none" stroke-linejoin="miter" d="M -673.019676 389.993664 L -1101.126401 389.993664 " stroke="#000000" stroke-width="2.375" stroke-opacity="1" stroke-miterlimit="4"/><path fill="#ffffff" d="M 79.378906 1639.121094 L 220.027344 1665.445312 C 220.429688 1665.519531 220.800781 1665.675781 221.148438 1665.90625 C 221.492188 1666.140625 221.78125 1666.433594 222.015625 1666.789062 C 222.25 1667.144531 222.414062 1667.535156 222.5 1667.960938 C 222.589844 1668.382812 222.597656 1668.808594 222.527344 1669.234375 L 188.386719 1874.738281 C 188.316406 1875.167969 188.171875 1875.5625 187.953125 1875.929688 C 187.734375 1876.296875 187.457031 1876.605469 187.121094 1876.851562 C 186.785156 1877.101562 186.417969 1877.273438 186.019531 1877.367188 C 185.621094 1877.460938 185.21875 1877.46875 184.816406 1877.394531 L 44.167969 1851.070312 C 43.765625 1850.996094 43.390625 1850.839844 43.046875 1850.609375 C 42.703125 1850.375 42.414062 1850.082031 42.179688 1849.726562 C 41.945312 1849.371094 41.78125 1848.980469 41.695312 1848.554688 C 41.605469 1848.132812 41.597656 1847.707031 41.667969 1847.28125 L 75.804688 1641.777344 C 75.875 1641.347656 76.023438 1640.953125 76.242188 1640.585938 C 76.460938 1640.21875 76.738281 1639.910156 77.074219 1639.664062 C 77.410156 1639.414062 77.777344 1639.242188 78.175781 1639.148438 C 78.574219 1639.054688 78.976562 1639.046875 79.378906 1639.121094 Z M 79.378906 1639.121094 " fill-opacity="1" fill-rule="nonzero"/><g clip-path="url(#066ca4c179)"><path stroke-linecap="butt" transform="matrix(0.253042, 0.0473591, -0.0446181, 0.268587, 440.552404, 1566.413317)" fill="none" stroke-linejoin="miter" d="M -1337.995555 506.629514 L -782.16413 506.631485 C -780.574791 506.627572 -779.052995 506.940986 -777.573775 507.538238 C -776.107039 508.152236 -774.812599 509.014769 -773.68797 510.139944 C -772.56334 511.265119 -771.685817 512.564759 -771.085344 514.044143 C -770.472386 515.506783 -770.171347 517.038965 -770.169741 518.623946 L -770.177398 1283.755207 C -770.173305 1285.354293 -770.476059 1286.876591 -771.080684 1288.350312 C -771.685309 1289.824032 -772.551817 1291.125773 -773.682694 1292.241431 C -774.811084 1293.371194 -776.108989 1294.239973 -777.576411 1294.847768 C -779.043833 1295.455563 -780.580943 1295.755684 -782.170282 1295.759597 L -1338.001707 1295.757626 C -1339.591047 1295.761539 -1341.127814 1295.450765 -1342.592063 1294.850872 C -1344.058799 1294.236875 -1345.353238 1293.374342 -1346.477868 1292.249167 C -1347.602497 1291.123992 -1348.48002 1289.824352 -1349.080493 1288.344968 C -1349.693451 1286.882328 -1349.994491 1285.350146 -1349.996097 1283.765165 L -1350.003411 518.636544 C -1350.007504 517.037458 -1349.689779 515.51252 -1349.085153 514.038799 C -1348.480528 512.565079 -1347.61402 511.263337 -1346.483144 510.14768 C -1345.354754 509.017917 -1344.056848 508.149138 -1342.589427 507.541343 C -1341.122005 506.933548 -1339.584895 506.633427 -1337.995555 506.629514 Z M -1337.995555 506.629514 " stroke="#000000" stroke-width="4" stroke-opacity="1" stroke-miterlimit="4"/></g><path stroke-linecap="butt" transform="matrix(0.253042, 0.0473591, -0.0446181, 0.268587, 440.552404, 1566.413317)" fill="none" stroke-linejoin="miter" d="M -825.988972 1075.004369 L -1254.09456 1074.994547 " stroke="#000000" stroke-width="2.375" stroke-opacity="1" stroke-miterlimit="4"/><path stroke-linecap="butt" transform="matrix(0.253042, 0.0473591, -0.0446181, 0.268587, 440.552404, 1566.413317)" fill="none" stroke-linejoin="miter" d="M -825.986372 1025.904354 L -1254.09196 1025.894531 " stroke="#000000" stroke-width="2.375" stroke-opacity="1" stroke-miterlimit="4"/><path stroke-linecap="butt" transform="matrix(0.253042, 0.0473591, -0.0446181, 0.268587, 440.552404, 1566.413317)" fill="none" stroke-linejoin="miter" d="M -825.993672 976.660647 L -1254.096773 976.66493 " stroke="#000000" stroke-width="2.375" stroke-opacity="1" stroke-miterlimit="4"/><path stroke-linecap="butt" transform="matrix(0.253042, 0.0473591, -0.0446181, 0.268587, 440.552404, 1566.413317)" fill="none" stroke-linejoin="miter" d="M -825.991023 927.473361 L -1254.094124 927.477644 " stroke="#000000" stroke-width="2.375" stroke-opacity="1" stroke-miterlimit="4"/><path stroke-linecap="butt" transform="matrix(0.253042, 0.0473591, -0.0446181, 0.268587, 440.552404, 1566.413317)" fill="none" stroke-linejoin="miter" d="M -825.988374 878.286075 L -1254.093962 878.276253 " stroke="#000000" stroke-width="2.375" stroke-opacity="1" stroke-miterlimit="4"/><path stroke-linecap="butt" transform="matrix(0.253042, 0.0473591, -0.0446181, 0.268587, 440.552404, 1566.413317)" fill="none" stroke-linejoin="miter" d="M -825.988213 829.084684 L -1254.091314 829.088967 " stroke="#000000" stroke-width="2.375" stroke-opacity="1" stroke-miterlimit="4"/><path stroke-linecap="butt" transform="matrix(0.253042, 0.0473591, -0.0446181, 0.268587, 440.552404, 1566.413317)" fill="none" stroke-linejoin="miter" d="M -825.985564 779.897398 L -1254.088665 779.901681 " stroke="#000000" stroke-width="2.375" stroke-opacity="1" stroke-miterlimit="4"/><path stroke-linecap="butt" transform="matrix(0.253042, 0.0473591, -0.0446181, 0.268587, 440.552404, 1566.413317)" fill="none" stroke-linejoin="miter" d="M -825.982915 730.710112 L -1254.086016 730.714395 " stroke="#000000" stroke-width="2.375" stroke-opacity="1" stroke-miterlimit="4"/><path stroke-linecap="butt" transform="matrix(0.253042, 0.0473591, -0.0446181, 0.268587, 440.552404, 1566.413317)" fill="none" stroke-linejoin="miter" d="M -825.995238 681.525466 L -1254.085854 681.513004 " stroke="#000000" stroke-width="2.375" stroke-opacity="1" stroke-miterlimit="4"/><path stroke-linecap="butt" transform="matrix(0.253042, 0.0473591, -0.0446181, 0.268587, 440.552404, 1566.413317)" fill="none" stroke-linejoin="miter" d="M -825.995076 632.324075 L -1254.083205 632.325718 " stroke="#000000" stroke-width="2.375" stroke-opacity="1" stroke-miterlimit="4"/><path stroke-linecap="butt" transform="matrix(0.253042, 0.0473591, -0.0446181, 0.268587, 440.552404, 1566.413317)" fill="none" stroke-linejoin="miter" d="M -825.992427 583.136789 L -1254.095528 583.141072 " stroke="#000000" stroke-width="2.375" stroke-opacity="1" stroke-miterlimit="4"/></svg>